<?xml version="1.0" encoding="UTF-8"?>
<svg xmlns="http://www.w3.org/2000/svg" xmlns:xlink="http://www.w3.org/1999/xlink" width="37px" height="37px" viewBox="0 0 37 37" version="1.1">
<g id="surface1">
<path style=" stroke:none;fill-rule:evenodd;fill:rgb(0%,0%,0%);fill-opacity:1;" d="M 18.5 0 C 28.71875 0 37 8.492188 37 18.96875 C 37 27.347656 31.707031 34.453125 24.359375 36.964844 C 23.421875 37.152344 23.089844 36.558594 23.089844 36.054688 C 23.089844 35.429688 23.109375 33.386719 23.109375 30.847656 C 23.109375 29.082031 22.519531 27.925781 21.855469 27.335938 C 25.972656 26.867188 30.304688 25.261719 30.304688 17.976562 C 30.304688 15.90625 29.585938 14.214844 28.398438 12.886719 C 28.589844 12.40625 29.222656 10.476562 28.214844 7.867188 C 28.214844 7.867188 26.664062 7.359375 23.132812 9.8125 C 21.65625 9.390625 20.074219 9.179688 18.5 9.171875 C 16.925781 9.179688 15.347656 9.390625 13.871094 9.8125 C 10.335938 7.359375 8.78125 7.867188 8.78125 7.867188 C 7.777344 10.476562 8.410156 12.40625 8.601562 12.886719 C 7.417969 14.214844 6.695312 15.90625 6.695312 17.976562 C 6.695312 25.246094 11.015625 26.875 15.125 27.351562 C 14.59375 27.824219 14.117188 28.660156 13.949219 29.886719 C 12.894531 30.375 10.214844 31.210938 8.566406 28.3125 C 8.566406 28.3125 7.585938 26.488281 5.730469 26.355469 C 5.730469 26.355469 3.925781 26.332031 5.605469 27.507812 C 5.605469 27.507812 6.816406 28.09375 7.65625 30.285156 C 7.65625 30.285156 8.742188 33.671875 13.890625 32.523438 C 13.898438 34.109375 13.914062 35.601562 13.914062 36.054688 C 13.914062 36.554688 13.574219 37.140625 12.652344 36.964844 C 5.300781 34.460938 0 27.347656 0 18.96875 C 0 8.492188 8.285156 0 18.5 0 "/>
</g>
</svg>
